<svg data-v-0dd9719b="" version="1.0" xmlns="http://www.w3.org/2000/svg" xmlns:xlink="http://www.w3.org/1999/xlink" width="100%" height="100%" viewBox="0 0 340.000000 250.000000" preserveAspectRatio="xMidYMid meet" color-interpolation-filters="sRGB" style="margin: auto;"> <rect data-v-0dd9719b="" x="0" y="0" width="100%" height="100%" fill="#fff" fill-opacity="1" class="background"></rect> <rect data-v-0dd9719b="" x="0" y="0" width="100%" height="100%" fill="url(#watermark)" fill-opacity="1" class="watermarklayer"></rect> <g data-v-0dd9719b="" fill="#333" class="icon-text-wrapper icon-svg-group iconsvg" transform="translate(67.19000244140625,92.96582794189453)"><g class="iconsvg-imagesvg" transform="translate(0,0)"><g><rect fill="#333" fill-opacity="0" stroke-width="2" x="0" y="0" width="60.00000000000001" height="64.06833956219968" class="image-rect"></rect> <svg x="0" y="0" width="60.00000000000001" height="64.06833956219968" filtersec="colorsb2950754790" class="image-svg-svg primary" style="overflow: visible;"><svg xmlns="http://www.w3.org/2000/svg" viewBox="-0.0014283348573371768 0 60.87229537963867 65"><g fill-opacity=".8"><path d="M60.87 37.88v.25c-.12 6.15-4.5 11.1-9.9 11.1a8.87 8.87 0 0 1-3.51-.74L14.07 15.35a10.67 10.67 0 0 1-1.59-5.62A10.9 10.9 0 0 1 18.58 0h31a11.41 11.41 0 0 1 11.29 11.55z" fill="#d13bfc"></path><path d="M30.77 10.62c10.92 0 19.77 9.54 19.77 21.3s-8.85 21.29-19.77 21.29S11 43.68 11 31.92s8.84-21.3 19.77-21.3z" fill="#02c0fa"></path><path d="M0 27.08v-.25c.12-6.15 4.51-11.09 9.9-11.09a8.82 8.82 0 0 1 3.51.73L46.8 49.62a10.63 10.63 0 0 1 1.59 5.61A10.92 10.92 0 0 1 42.3 65h-31A11.41 11.41 0 0 1 0 53.41z" fill="#5c36ee"></path></g></svg></svg> <!----></g></g> <g transform="translate(67,10.389171600341797)"><g data-gra="path-name" fill-rule="" class="tp-name iconsvg-namesvg"><g transform="scale(1)"><g><path d="M23.04-38.56L23.04-38.56Q21.65-33.52 20.63-28.52 19.6-23.53 18.88-18.56 18.15-13.59 17.64-8.65 17.13-3.71 16.73 1.21L16.73 1.21 6.61 0.54Q5.99-4.4 5.37-9.31 4.75-14.21 4.01-19.08 3.28-23.96 2.39-28.78 1.5-33.6 0.38-38.4L0.38-38.4Q0.91-38.4 1.45-38.36 1.99-38.32 2.47-38.32L2.47-38.32Q3.97-38.32 5.34-38.4 6.71-38.48 8.3-38.56L8.3-38.56Q8.49-34.7 8.81-30.55 9.13-26.4 9.56-22.17 9.99-17.94 10.53-13.72 11.06-9.51 11.71-5.56L11.71-5.56Q12.38-9.51 12.96-13.72 13.54-17.94 13.96-22.18 14.39-26.43 14.68-30.59 14.96-34.75 15.07-38.62L15.07-38.62Q16.19-38.48 17.24-38.44 18.29-38.4 19.31-38.4L19.31-38.4Q21.05-38.4 23.04-38.56ZM43.37 0.73L37.17 1.1Q37.01 0.27 36.87-0.59 36.74-1.45 36.66-2.36L36.66-2.36Q35.42-0.54 33.7 0.44 31.98 1.42 29.94 1.42L29.94 1.42Q28.9 1.42 27.8 1.09 26.69 0.75 25.79-0.08 24.9-0.91 24.32-2.35 23.74-3.79 23.74-5.99L23.74-5.99Q23.74-7.81 24.28-9.17 24.81-10.53 25.67-11.55 26.53-12.57 27.61-13.32 28.68-14.07 29.74-14.66 30.8-15.25 31.77-15.76 32.74-16.27 33.35-16.78L33.35-16.78Q34.54-17.72 35.41-18.79 36.28-19.85 36.82-21L36.82-21Q36.71-22.85 36.43-24.05 36.15-25.24 35.69-25.96 35.23-26.67 34.58-26.95 33.92-27.23 33.09-27.23L33.09-27.23Q31.85-27.23 31-26.69 30.16-26.16 29.62-25.41L29.62-25.41Q30.29-24.98 30.66-24.49 31.02-24.01 31.21-23.55L31.21-23.55Q31.42-23.04 31.45-22.5L31.45-22.5Q31.45-20.68 30.41-19.71 29.38-18.75 27.77-18.75L27.77-18.75Q26.94-18.75 26.24-19.13 25.54-19.52 25.02-20.22 24.49-20.92 24.2-21.89 23.9-22.85 23.9-23.98L23.9-23.98Q23.9-25.11 24.41-26.37 24.92-27.63 26.05-28.72 27.18-29.81 28.95-30.52 30.72-31.23 33.25-31.23L33.25-31.23Q35.77-31.23 37.57-30.25 39.37-29.27 40.52-27.65 41.68-26.02 42.2-23.9 42.73-21.78 42.73-19.52L42.73-19.52Q42.73-17.83 42.7-15.84 42.67-13.86 42.67-11.76L42.67-11.76Q42.67-10.02 42.7-8.27 42.73-6.53 42.81-4.9 42.89-3.28 43.02-1.84 43.16-0.4 43.37 0.73L43.37 0.73ZM36.55-8.92L36.77-14.64Q35.83-13.51 34.75-12.7L34.75-12.7Q33.95-12.14 33.02-11.44 32.09-10.74 31.3-9.96 30.51-9.18 29.98-8.34 29.46-7.49 29.46-6.61L29.46-6.61Q29.46-5.4 30.05-4.54 30.64-3.68 31.72-3.68L31.72-3.68Q32.71-3.68 33.49-4.22 34.27-4.75 34.87-5.55 35.48-6.34 35.89-7.25 36.31-8.16 36.55-8.92L36.55-8.92ZM66.79 0.38L59.81 0.27Q59.86-0.81 59.93-1.79 60-2.77 60.08-3.68L60.08-3.68Q59.16-2.07 58.13-1.21 57.09-0.35 56.21 0.08L56.21 0.08Q55.16 0.56 54.14 0.67L54.14 0.67Q52.15 0.67 50.68-0.32 49.2-1.32 48.23-3.14 47.27-4.97 46.8-7.53 46.33-10.1 46.33-13.27L46.33-13.27Q46.33-17.7 46.61-21.86 46.89-26.02 47.53-30.02L47.53-30.02 54.36-29.27Q53.71-26.08 53.38-23.57 53.04-21.05 52.88-19.28L52.88-19.28Q52.69-17.21 52.66-15.68L52.66-15.68Q52.66-13.13 52.82-11.24 52.99-9.35 53.4-8.1 53.82-6.85 54.54-6.23 55.27-5.61 56.4-5.61L56.4-5.61Q57.18-5.75 57.93-6.69L57.93-6.69Q58.25-7.09 58.6-7.72 58.95-8.35 59.3-9.27 59.65-10.18 59.97-11.41 60.29-12.65 60.59-14.29L60.59-14.29Q60.64-15.87 60.64-17.44 60.64-19.01 60.64-20.84L60.64-20.84Q60.64-22.77 60.64-25.06 60.64-27.34 60.59-30.19L60.59-30.19 66.68-30.08Q66.55-28.04 66.47-26.3 66.39-24.57 66.35-23.06 66.31-21.54 66.28-20.2 66.25-18.85 66.25-17.59L66.25-17.59Q66.25-15.66 66.29-13.8 66.33-11.95 66.41-9.87 66.49-7.79 66.59-5.3 66.68-2.82 66.79 0.38L66.79 0.38ZM70.6-41.46L77.59-41.3Q77.42-38.03 77.29-35.23 77.16-32.44 77.06-29.97 76.97-27.5 76.91-25.27 76.86-23.04 76.82-20.87 76.78-18.69 76.77-16.49 76.75-14.29 76.75-11.87L76.75-11.87Q76.75-9.18 76.75-6.12 76.75-3.06 76.81 0.67L76.81 0.67 70.71 0.54Q70.87-3.52 70.93-7.45 70.98-11.39 70.98-15.52L70.98-15.52Q70.98-18.29 70.95-21.2 70.93-24.12 70.87-27.3 70.82-30.48 70.75-34 70.68-37.52 70.6-41.46L70.6-41.46ZM83.63-40.71L90.45-40.82Q90.23-38.05 90.1-35.38 89.97-32.71 89.83-30.02L89.83-30.02Q91.01-30.08 92.17-30.12 93.32-30.16 94.53-30.24L94.53-30.24 94.64-23.36Q93.35-23.58 92.09-23.71 90.83-23.85 89.62-23.93L89.62-23.93Q89.54-21.65 89.52-19.42 89.51-17.19 89.51-14.9L89.51-14.9Q89.51-10.82 89.6-6.79 89.7-2.77 89.91 1.32L89.91 1.32 82.9 1.21Q83.25-5.1 83.48-11.4 83.71-17.7 83.79-24.09L83.79-24.09Q82.66-24.04 81.53-23.97 80.41-23.9 79.22-23.82L79.22-23.82 79.44-30.19Q80.54-30.1 81.63-30.06 82.71-30.02 83.79-29.97L83.79-29.97Q83.79-32.66 83.74-35.33 83.68-38 83.63-40.71L83.63-40.71ZM115.91-5.77L115.91-5.77Q115.91-4.19 115.18-2.79 114.46-1.4 113.22-0.38 111.99 0.64 110.32 1.24 108.66 1.83 106.78 1.83L106.78 1.83Q105.52 1.83 104.23 1.48 102.94 1.13 101.76 0.32 100.57-0.48 99.53-1.8 98.48-3.12 97.71-5.02 96.95-6.93 96.51-9.49 96.06-12.06 96.06-15.39L96.06-15.39Q96.06-18.53 96.51-20.95 96.95-23.36 97.71-25.16 98.48-26.96 99.5-28.18 100.52-29.41 101.69-30.17 102.86-30.94 104.11-31.26 105.35-31.58 106.56-31.58L106.56-31.58Q108.36-31.58 109.97-31 111.58-30.43 112.79-29.3 114-28.17 114.71-26.52 115.42-24.87 115.42-22.72L115.42-22.72Q115.42-20.79 114.63-18.81 113.84-16.84 112.28-15.08 110.73-13.32 108.43-11.88 106.13-10.45 103.15-9.61L103.15-9.61Q103.31-7.95 103.62-6.58 103.93-5.21 104.4-4.24 104.87-3.28 105.5-2.74 106.13-2.2 106.97-2.2L106.97-2.2Q107.5-2.23 107.99-2.39L107.99-2.39Q108.42-2.52 108.86-2.82 109.3-3.12 109.6-3.68L109.6-3.68Q108.9-4 108.52-4.51 108.15-5.02 107.96-5.48L107.96-5.48Q107.74-6.02 107.72-6.61L107.72-6.61Q107.72-7.9 108.23-8.7 108.74-9.51 109.44-9.96 110.13-10.42 110.86-10.59 111.58-10.77 112.01-10.77L112.01-10.77Q112.47-10.77 113.13-10.58 113.79-10.39 114.4-9.86 115.02-9.32 115.47-8.34 115.91-7.36 115.91-5.77ZM109.27-22.67L109.27-22.67Q109.27-23.63 109.1-24.51 108.93-25.38 108.59-26.02 108.25-26.67 107.76-27.06 107.26-27.45 106.62-27.45L106.62-27.45Q105.52-27.45 104.82-26.44 104.12-25.43 103.69-23.77 103.26-22.1 103.1-19.93 102.94-17.75 102.94-15.39L102.94-15.39 102.94-13.43Q104.31-14.15 105.47-15.15 106.64-16.14 107.49-17.34 108.33-18.53 108.8-19.87 109.27-21.22 109.27-22.67ZM139 0.05L139 0.05 131.65 1.21Q130.81-1.21 129.9-3.5 128.99-5.8 127.97-8.08L127.97-8.08Q127.19-6.02 126.5-3.83 125.82-1.64 125.15 0.78L125.15 0.78 117.06-0.05Q119.21-3.89 121.19-7.37 123.16-10.85 124.99-14.37L124.99-14.37Q123.13-18.1 121.09-21.74 119.05-25.38 116.9-29.19L116.9-29.19 124.66-29.54Q125.42-27.12 126.21-24.9 127-22.67 127.91-20.57L127.91-20.57Q128.83-22.59 129.64-24.73 130.46-26.88 131.19-29.19L131.19-29.19 138.74-28.44Q136.29-24.76 134.3-21.4 132.32-18.05 130.71-14.64L130.71-14.64Q132.56-10.98 134.64-7.39 136.72-3.79 139 0.05Z" transform="translate(-0.3800000250339508, 41.459999084472656)"></path></g> <!----> <!----> <!----> <!----> <!----> <!----> <!----></g></g> <!----></g></g><defs v-gra="od"></defs></svg>